<svg width="46" height="52" viewBox="0 0 46 52" fill="none" xmlns="http://www.w3.org/2000/svg">
<path d="M23 6C13.2901 6 5.39062 13.8995 5.39062 23.6094C5.39062 26.7174 6.2118 29.7731 7.76529 32.446C8.12745 33.0691 8.53228 33.6764 8.96874 34.2509L21.7769 51.3872C22.0651 51.7729 22.5184 52 23 52C23.4815 52 23.9348 51.7729 24.2231 51.3872L37.0313 34.251C37.4676 33.6764 37.8725 33.0692 38.2347 32.446C39.7882 29.7731 40.6094 26.7174 40.6094 23.6094C40.6094 13.8995 32.7099 6 23 6Z" fill="white"/>
<circle cx="23" cy="23.48" r="14.72" fill="#D6F5DB"/>
<path d="M26.3764 15.706H24.84V13.82H21.16V15.706H19.6236C18.952 15.706 18.4 16.2718 18.4 16.9602V31.4164C18.4 32.1142 18.952 32.68 19.6236 32.68H26.3672C27.048 32.68 27.6 32.1142 27.6 31.4258V16.9602C27.6 16.2718 27.048 15.706 26.3764 15.706ZM22.08 30.794V25.6075H20.24L23.92 18.535V23.7215H25.76L22.08 30.794Z" fill="#46D16A"/>
<circle cx="23" cy="6" r="6" fill="white"/>
<path d="M22.9741 9.07955C22.5309 9.07955 22.1379 9.00379 21.7951 8.85227C21.4542 8.69886 21.1853 8.48769 20.9883 8.21875C20.7913 7.94981 20.6909 7.64015 20.6871 7.28977H22.1019C22.1076 7.41667 22.1483 7.52936 22.2241 7.62784C22.2998 7.72443 22.4031 7.80019 22.5337 7.85511C22.6644 7.91004 22.8131 7.9375 22.9798 7.9375C23.1464 7.9375 23.2932 7.90814 23.4201 7.84943C23.5489 7.78883 23.6493 7.70644 23.7212 7.60227C23.7932 7.49621 23.8282 7.375 23.8263 7.23864C23.8282 7.10227 23.7894 6.98106 23.7099 6.875C23.6303 6.76894 23.5176 6.68655 23.3718 6.62784C23.2279 6.56913 23.0574 6.53977 22.8604 6.53977H22.2951V5.53977H22.8604C23.0328 5.53977 23.1843 5.51136 23.315 5.45455C23.4476 5.39773 23.5508 5.31818 23.6246 5.21591C23.6985 5.11174 23.7345 4.99242 23.7326 4.85795C23.7345 4.72727 23.7032 4.61269 23.6388 4.5142C23.5763 4.41383 23.4883 4.33617 23.3746 4.28125C23.2629 4.22633 23.1332 4.19886 22.9854 4.19886C22.8301 4.19886 22.689 4.22633 22.5621 4.28125C22.4371 4.33617 22.3377 4.41383 22.2638 4.5142C22.19 4.61458 22.1512 4.73106 22.1474 4.86364H20.8036C20.8074 4.51705 20.904 4.21212 21.0934 3.94886C21.2828 3.68371 21.5404 3.47633 21.8661 3.3267C22.1938 3.17708 22.5669 3.10227 22.9854 3.10227C23.4021 3.10227 23.7686 3.17519 24.0849 3.32102C24.4012 3.46686 24.6474 3.66572 24.8235 3.91761C24.9996 4.16761 25.0877 4.45076 25.0877 4.76705C25.0896 5.0947 24.9826 5.36458 24.7667 5.5767C24.5527 5.78883 24.2771 5.91951 23.94 5.96875V6.0142C24.3907 6.06723 24.7307 6.21307 24.9599 6.4517C25.1909 6.69034 25.3055 6.98864 25.3036 7.34659C25.3036 7.68371 25.2042 7.98295 25.0053 8.24432C24.8084 8.50379 24.5337 8.70833 24.1815 8.85795C23.8311 9.00568 23.4286 9.07955 22.9741 9.07955Z" fill="black"/>
</svg>
